  0
SECTION
  2
HEADER
  9
$ACADVER
  1
AC1009
  9
$INSBASE
 10
0.0
 20
0.0
 30
0.0
  9
$EXTMIN
 10
-245.5
 20
-1.40774978984741e-13
 30
0.0
  9
$EXTMAX
 10
45
 20
209.4
 30
0.0
  9
$LIMMIN
 10
0.0
 20
0.0
  9
$LIMMAX
 10
12.0000
 20
 9.0000
9
$ORTHOMODE
70
0
9
$REGENMODE
70
1
9
$FILLMODE
70
1
9
$QTEXTMODE
70
0
9
$MIRRTEXT
70
1
9
$DRAGMODE
70
2
9
$LTSCALE
40
1.0
9
$OSMODE
70
0
9
$ATTMODE
70
1
9
$TEXTSIZE
40
0.2
9
$TRACEWID
40
0.05
9
$TEXTSTYLE
7
STANDARD
9
$CLAYER
8
0
9
$CELTYPE
6
BYLAYER
9
$CECOLOR
62
256
9
$DIMSCALE
40
1.0
9
$DIMASZ
40
0.18
9
$DIMEXO
40
0.0625
9
$DIMDLI
40
0.38
9
$DIMRND
40
0.0
9
$DIMDLE
40
0.0
9
$DIMEXE
40
0.18
9
$DIMTP
40
0.0
9
$DIMTM
40
0.0
9
$DIMTXT
40
0.18
9
$DIMCEN
40
0.09
9
$DIMTSZ
40
0.0
9
$DIMTOL
70
0
9
$DIMLIM
70
0
9
$DIMTIH
70
1
9
$DIMTOH
70
1
9
$DIMSE1
70
0
9
$DIMSE2
70
0
9
$DIMTAD
70
0
9
$DIMZIN
70
0
9
$DIMBLK
1

9
$DIMASO
70
1
9
$DIMSHO
70
1
9
$DIMPOST
1

9
$DIMAPOST
1

9
$DIMALT
70
0
9
$DIMALTD
70
2
9
$DIMALTF
40
25.4
9
$DIMLFAC
40
1.0
9
$DIMTOFL
70
0
9
$DIMTVP
40
0.0
9
$DIMTIX
70
0
9
$DIMSOXD
70
0
9
$DIMSAH
70
0
9
$DIMBLK1
1

9
$DIMBLK2
1

9
$DIMSTYLE
2
*UNNAMED
9
$DIMCLRD
70
0
9
$DIMCLRE
70
0
9
$DIMCLRT
70
0
9
$DIMTFAC
40
1.0
9
$DIMGAP
40
0.09
9
$LUNITS
70
2
9
$LUPREC
70
4
9
$SKETCHINC
40
0.1
9
$FILLETRAD
40
0.0
9
$AUNITS
70
0
9
$AUPREC
70
0
9
$MENU
1
acad
9
$ELEVATION
40
0.0
9
$PELEVATION
40
0.0
9
$THICKNESS
40
0.0
9
$LIMCHECK
70
0
9
$BLIPMODE
70
1
9
$CHAMFERA
40
0.0
9
$CHAMFERB
40
0.0
9
$SKPOLY
70
0
9
$TDCREATE
40
2449214.701881018
9
$TDUPDATE
40
2449214.701881018
9
$TDINDWG
40
0.0000000000
9
$TDUSRTIMER
40
0.0000000000
9
$USRTIMER
70
1
9
$ANGBASE
50
0.0
9
$ANGDIR
70
0
9
$PDMODE
70
0
9
$PDSIZE
40
0.0
9
$PLINEWID
40
0.0
9
$COORDS
70
1
9
$SPLFRAME
70
0
9
$SPLINETYPE
70
6
9
$SPLINESEGS
70
8
9
$ATTDIA
70
0
9
$ATTREQ
70
1
9
$HANDLING
70
0
9
$HANDSEED
5
0
9
$SURFTAB1
70
6
9
$SURFTAB2
70
6
9
$SURFTYPE
70
6
9
$SURFU
70
6
9
$SURFV
70
6
9
$UCSNAME
2

9
$UCSORG
10
0.0
20
0.0
30
0.0
9
$UCSXDIR
10
1.0
20
0.0
30
0.0
9
$UCSYDIR
10
0.0
20
1.0
30
0.0
9
$PUCSNAME
2

9
$PUCSORG
10
0.0
20
0.0
30
0.0
9
$PUCSXDIR
10
1.0
20
0.0
30
0.0
9
$PUCSYDIR
10
0.0
20
1.0
30
0.0
9
$USERI1
70
0
9
$USERI2
70
0
9
$USERI3
70
0
9
$USERI4
70
0
9
$USERI5
70
0
9
$USERR1
40
0.0
9
$USERR2
40
0.0
9
$USERR3
40
0.0
9
$USERR4
40
0.0
9
$USERR5
40
0.0
9
$WORLDVIEW
70
1
9
$SHADEDGE
70
3
9
$SHADEDIF
70
70
9
$TILEMODE
70
1
9
$MAXACTVP
70
16
9
$PINSBASE
10
0.0
20
0.0
30
0.0
9
$PLIMCHECK
70
0
  9
$PEXTMIN
 10
1.0000000000000000E+020
 20
1.0000000000000000E+020
 30
1.0000000000000000E+020
  9
$PEXTMAX
 10
-1.0000000000000000E+020
 20
-1.0000000000000000E+020
 30
-1.0000000000000000E+020
  9
$PLIMMIN
 10
-245.5
 20
-1.40774978984741e-13
  9
$PLIMMAX
 10
12.0000
 20
 9.0000
  9
$UNITMODE
 70
0
  9
$VISRETAIN
 70
1
  9
$PLINEGEN
 70
0
  9
$PSLTSCALE
 70
1
  0
ENDSEC
  0
SECTION
  2
TABLES
  0
TABLE
  2
VPORT
 70
3
  0
VPORT
  2
*ACTIVE
 70
0
 10
0.0
 20
0.0
 11
1.0
 21
1.0
 12
-100.25
 22
104.7
 13
0.0
 23
0.0
 14
1.0
 24
1.0
 15
1.0
 25
1.0
 16
0.0
 26
0.0
 36
1.0
 17
0.0
 27
0.0
 37
0.0
 40
209.4
 41
1.3872970391595
 42
50.0
 43
0.0
 44
0.0
 50
0.0
 51
0.0
 71
0
 72
100
 73
1
 74
3
 75
0
 76
0
 77
0
 78
0
  0
ENDTAB
0
TABLE
2
LTYPE
70
1
0
LTYPE
2
CONTINUOUS
70
64
3
Solid line
72
65
73
0
40
0.0
0
ENDTAB
  0
TABLE
  2
LAYER
 70
2
  0
LAYER
  2
Slice
 70
0
 62
7
  6
CONTINUOUS
  0
ENDTAB
0
TABLE
2
STYLE
70
1
0
STYLE
2
STANDARD
70
64
40
0.0
41
1.0
50
0.0
71
0
42
0.2
3
txt
4

0
ENDTAB
0
TABLE
2
VIEW
70
0
0
ENDTAB
0
TABLE
2
UCS
70
0
0
ENDTAB
0
TABLE
2
APPID
70
1
0
APPID
2
ACAD
70
64
0
ENDTAB
0
TABLE
2
DIMSTYLE
70
0
0
ENDTAB
0
ENDSEC
0
SECTION
2
BLOCKS
0
ENDSEC
  0
SECTION
  2
ENTITIES
  0
LINE
  5
0
  8
Slice
 10
35.5014796342469
 20
36.1039338332583
 30
0
 11
39.1294259795548
 21
39.5445740811725
 31
0
  0
LINE
  5
0
  8
Slice
 10
31.5505906021253
 20
33.0395455001873
 30
0
 11
35.5014796342469
 21
36.1039338332583
 31
0
  0
LINE
  5
0
  8
Slice
 10
-45
 20
12.5170387115004
 30
0
 11
-45
 21
109.95
 31
0
  0
LINE
  5
0
  8
Slice
 10
27.3928832691261
 20
30.2622320981521
 30
0
 11
31.5505906021253
 21
33.0395455001873
 31
0
  0
LINE
  5
0
  8
Slice
 10
-49
 20
113.95
 30
0
 11
-92.5
 21
113.95
 31
0
  0
LINE
  5
0
  8
Slice
 10
-96.5
 20
109.95
 30
0
 11
-96.5
 21
-1.56422454079975e-16
 31
0
  0
LINE
  5
0
  8
Slice
 10
-144.5
 20
9.73303676276316e-14
 30
0
 11
-144.5
 21
3.0000000000001
 31
0
  0
LINE
  5
0
  8
Slice
 10
-144.5
 20
3.0000000000001
 30
0
 11
-196.5
 21
3.00000000000013
 31
0
  0
LINE
  5
0
  8
Slice
 10
-196.5
 20
3.00000000000013
 30
0
 11
-196.5
 21
1.13436564038773e-13
 31
0
  0
LINE
  5
0
  8
Slice
 10
-196.5
 20
1.13436564038773e-13
 30
0
 11
-245.5
 21
-1.40774978984741e-13
 31
0
  0
LINE
  5
0
  8
Slice
 10
-96.5
 20
-1.56422454079975e-16
 30
0
 11
-144.5
 21
9.73303676276316e-14
 31
0
  0
LINE
  5
0
  8
Slice
 10
45
 20
158
 30
0
 11
45
 21
42.7
 31
0
  0
ARC
  5
0
  8
Slice
 10
-44.5
 20
12.5170387115004
 30
0
 40
0.5
 50
180
 51
270
  0
LINE
  5
0
  8
Slice
 10
-245.5
 20
-1.40774978984741e-13
 30
0
 11
-245.5
 21
158
 31
0
  0
LINE
  5
0
  8
Slice
 10
-145.251471862576
 20
209.4
 30
0
 11
-50.7485281374239
 21
209.4
 31
0
  0
LINE
  5
0
  8
Slice
 10
-194.651471862576
 20
160
 30
0
 11
-145.251471862576
 21
209.4
 31
0
  0
LINE
  5
0
  8
Slice
 10
-243.5
 20
160
 30
0
 11
-194.651471862576
 21
160
 31
0
  0
LINE
  5
0
  8
Slice
 10
-1.34852813742381
 20
160
 30
0
 11
43
 21
160
 31
0
  0
LINE
  5
0
  8
Slice
 10
-50.7485281374239
 20
209.4
 30
0
 11
-1.34852813742381
 21
160
 31
0
  0
LINE
  5
0
  8
Slice
 10
23.0329078586459
 20
27.8146589286618
 30
0
 11
27.3928832691261
 21
30.2622320981521
 31
0
  0
LINE
  5
0
  8
Slice
 10
-44.5
 20
12.0170387115004
 30
0
 11
-41.5
 21
12.0170387115004
 31
0
  0
LINE
  5
0
  8
Slice
 10
18.5174957776234
 20
25.6673224998376
 30
0
 11
23.0329078586459
 21
27.8146589286618
 31
0
  0
ARC
  5
0
  8
Slice
 10
-49
 20
109.95
 30
0
 40
4
 50
0
 51
90
  0
ARC
  5
0
  8
Slice
 10
-92.5
 20
109.95
 30
0
 40
3.99999999999999
 50
90
 51
180
  0
ARC
  5
0
  8
Slice
 10
-243.5
 20
158
 30
0
 40
2
 50
90
 51
180
  0
ARC
  5
0
  8
Slice
 10
43
 20
158
 30
0
 40
2
 50
0
 51
90
  0
LINE
  5
0
  8
Slice
 10
-40.7522823455435
 20
12.7647563659569
 30
0
 11
-35
 21
13.4162770050311
 31
0
  0
LINE
  5
0
  8
Slice
 10
-25
 20
14.7292221716811
 30
0
 11
-20.05645475673
 21
15.4784620716746
 31
0
  0
LINE
  5
0
  8
Slice
 10
13.8852882242698
 20
23.7851287843412
 30
0
 11
18.5174957776234
 21
25.6673224998376
 31
0
  0
LINE
  5
0
  8
Slice
 10
-35
 20
13.4162770050311
 30
0
 11
-30
 21
14.042126130591
 31
0
  0
LINE
  5
0
  8
Slice
 10
9.16625876734412
 20
22.1326273517646
 30
0
 11
13.8852882242698
 21
23.7851287843412
 31
0
  0
LINE
  5
0
  8
Slice
 10
-30
 20
14.042126130591
 30
0
 11
-25
 21
14.7292221716811
 31
0
  0
LINE
  5
0
  8
Slice
 10
4.38283441309889
 20
20.6769998419896
 30
0
 11
9.16625876734412
 21
22.1326273517646
 31
0
  0
LINE
  5
0
  8
Slice
 10
-10.2101835285232
 20
17.2227499577274
 30
0
 11
-5.31577312147875
 21
18.2448785051298
 31
0
  0
LINE
  5
0
  8
Slice
 10
-0.448513426555182
 20
19.389336045702
 30
0
 11
4.38283441309889
 21
20.6769998419896
 31
0
  0
LINE
  5
0
  8
Slice
 10
-5.31577312147875
 20
18.2448785051298
 30
0
 11
-0.448513426555182
 21
19.389336045702
 31
0
  0
ARC
  5
0
  8
Slice
 10
44.5
 20
42.7
 30
0
 40
0.499999999999993
 50
-90
 51
0
  0
LINE
  5
0
  8
Slice
 10
-15.1253242046355
 20
16.3054756617686
 30
0
 11
-10.2101835285232
 21
17.2227499577274
 31
0
  0
LINE
  5
0
  8
Slice
 10
-20.05645475673
 20
15.4784620716746
 30
0
 11
-15.1253242046355
 21
16.3054756617686
 31
0
  0
LINE
  5
0
  8
Slice
 10
39.1294259795548
 20
39.5445740811725
 30
0
 11
41.5
 21
42.2
 31
0
  0
LINE
  5
0
  8
Slice
 10
44.5
 20
42.2
 30
0
 11
41.5
 21
42.2
 31
0
  0
LINE
  5
0
  8
Slice
 10
-41.5
 20
12.0170387115004
 30
0
 11
-40.7522823455435
 21
12.7647563659569
 31
0
  0
ENDSEC
  0
EOF
